<svg width="32" height="32" viewBox="0 0 32 32" fill="none" xmlns="http://www.w3.org/2000/svg">
<path d="M5.33335 19.6667H26.6667C27.5872 19.6667 28.3334 20.4129 28.3334 21.3334V26.6667C28.3334 27.5872 27.5872 28.3334 26.6667 28.3334H5.33335C4.41288 28.3334 3.66669 27.5872 3.66669 26.6667V21.3334C3.66669 20.4129 4.41288 19.6667 5.33335 19.6667Z" stroke="#64748B" stroke-width="2" stroke-linecap="round" stroke-linejoin="round"/>
<path d="M8 24H8.01333" stroke="#64748B" stroke-width="2" stroke-linecap="round" stroke-linejoin="round"/>
<path d="M5.33335 3.66675H26.6667C27.5872 3.66675 28.3334 4.41294 28.3334 5.33341V10.6667C28.3334 11.5872 27.5872 12.3334 26.6667 12.3334H5.33335C4.41288 12.3334 3.66669 11.5872 3.66669 10.6667V5.33341C3.66669 4.41294 4.41288 3.66675 5.33335 3.66675Z" stroke="#64748B" stroke-width="2" stroke-linecap="round" stroke-linejoin="round"/>
<path d="M8 8H8.01333" stroke="#64748B" stroke-width="2" stroke-linecap="round" stroke-linejoin="round"/>
</svg>
