<svg width="17" height="16" viewBox="0 0 17 16" fill="none" xmlns="http://www.w3.org/2000/svg">
<path d="M9.83341 1.33325H4.50008C4.14646 1.33325 3.80732 1.47373 3.55727 1.72378C3.30722 1.97382 3.16675 2.31296 3.16675 2.66659V13.3333C3.16675 13.6869 3.30722 14.026 3.55727 14.2761C3.80732 14.5261 4.14646 14.6666 4.50008 14.6666H12.5001C12.8537 14.6666 13.1928 14.5261 13.4429 14.2761C13.6929 14.026 13.8334 13.6869 13.8334 13.3333V5.33325L9.83341 1.33325Z" stroke="#64748B" stroke-width="1.5" stroke-linecap="round" stroke-linejoin="round"/>
<path d="M11.1666 11.3333H5.83325" stroke="#64748B" stroke-width="1.5" stroke-linecap="round" stroke-linejoin="round"/>
<path d="M11.1666 8.66675H5.83325" stroke="#64748B" stroke-width="1.5" stroke-linecap="round" stroke-linejoin="round"/>
<path d="M7.16658 6H6.49992H5.83325" stroke="#64748B" stroke-width="1.5" stroke-linecap="round" stroke-linejoin="round"/>
<path d="M9.83325 1.33325V5.33325H13.8333" stroke="#64748B" stroke-width="1.5" stroke-linecap="round" stroke-linejoin="round"/>
</svg>
