<svg width="17" height="16" viewBox="0 0 17 16" fill="none" xmlns="http://www.w3.org/2000/svg">
<path d="M7.83325 2.66675H3.16659C2.81296 2.66675 2.47382 2.80722 2.22378 3.05727C1.97373 3.30732 1.83325 3.64646 1.83325 4.00008V13.3334C1.83325 13.687 1.97373 14.0262 2.22378 14.2762C2.47382 14.5263 2.81296 14.6667 3.16659 14.6667H12.4999C12.8535 14.6667 13.1927 14.5263 13.4427 14.2762C13.6928 14.0262 13.8333 13.687 13.8333 13.3334V8.66675" stroke="#64748B" stroke-width="1.5" stroke-linecap="round" stroke-linejoin="round"/>
<path d="M12.8333 1.66665C13.0985 1.40144 13.4582 1.25244 13.8333 1.25244C14.2083 1.25244 14.568 1.40144 14.8333 1.66665C15.0985 1.93187 15.2475 2.29158 15.2475 2.66665C15.2475 3.04173 15.0985 3.40144 14.8333 3.66665L8.49992 9.99999L5.83325 10.6667L6.49992 7.99999L12.8333 1.66665Z" stroke="#64748B" stroke-width="1.5" stroke-linecap="round" stroke-linejoin="round"/>
</svg>
