<svg width="32" height="32" viewBox="0 0 32 32" fill="none" xmlns="http://www.w3.org/2000/svg">
<path d="M29.3334 16H2.66669" stroke="#64748B" stroke-width="2" stroke-linecap="round" stroke-linejoin="round"/>
<path d="M8.16085 7.26098L7.26669 6.81325L8.16222 7.25825C8.3002 6.98057 8.51291 6.74689 8.77642 6.58348C9.03988 6.42011 9.34368 6.33345 9.65368 6.33325H22.3464C22.6564 6.33345 22.9602 6.42011 23.2236 6.58348C23.4871 6.74689 23.6998 6.98057 23.8378 7.25825L23.8392 7.26098L28.3334 16.2363V23.9999C28.3334 24.4419 28.1578 24.8659 27.8452 25.1784C27.5326 25.491 27.1087 25.6666 26.6667 25.6666H5.33335C4.89133 25.6666 4.4674 25.491 4.15484 25.1784C3.84228 24.8659 3.66669 24.4419 3.66669 23.9999V16.2363L8.16085 7.26098Z" stroke="#64748B" stroke-width="2" stroke-linecap="round" stroke-linejoin="round"/>
<path d="M13.3333 21.3333H13.3466" stroke="#64748B" stroke-width="2" stroke-linecap="round" stroke-linejoin="round"/>
<path d="M8 21.3333H8.01333" stroke="#64748B" stroke-width="2" stroke-linecap="round" stroke-linejoin="round"/>
</svg>
