<svg width="30" height="28" viewBox="0 0 30 28" fill="none" xmlns="http://www.w3.org/2000/svg">
<path d="M28.5781 13.7812L16.5031 1.71246L15.6937 0.903082C15.5093 0.719883 15.2599 0.617065 15 0.617065C14.74 0.617065 14.4906 0.719883 14.3062 0.903082L1.42186 13.7812C1.23289 13.9694 1.08355 14.1936 0.982646 14.4405C0.881742 14.6874 0.83132 14.952 0.834358 15.2187C0.846858 16.3187 1.76248 17.1968 2.86248 17.1968H4.19061V27.375H25.8094V17.1968H27.1656C27.7 17.1968 28.2031 16.9875 28.5812 16.6093C28.7674 16.4237 28.9149 16.2031 29.0152 15.9601C29.1156 15.7171 29.1667 15.4566 29.1656 15.1937C29.1656 14.6625 28.9562 14.1593 28.5781 13.7812ZM16.75 25.125H13.25V18.75H16.75V25.125ZM23.5594 14.9468V25.125H18.75V18C18.75 17.3093 18.1906 16.75 17.5 16.75H12.5C11.8094 16.75 11.25 17.3093 11.25 18V25.125H6.44061V14.9468H3.44061L15.0031 3.39371L15.725 4.11558L26.5625 14.9468H23.5594Z" fill="#64748B"/>
</svg>
