<svg width="32" height="32" viewBox="0 0 32 32" fill="none" xmlns="http://www.w3.org/2000/svg">
<mask id="path-1-inside-1_1094_85381" fill="white">
<path d="M30.6667 28V25.3333C30.6658 24.1516 30.2725 23.0037 29.5485 22.0698C28.8245 21.1358 27.8109 20.4688 26.6667 20.1733"/>
</mask>
<path d="M27.6667 28C27.6667 29.6569 29.0098 31 30.6667 31C32.3235 31 33.6667 29.6569 33.6667 28H27.6667ZM30.6667 25.3333L33.6667 25.3333L33.6667 25.3311L30.6667 25.3333ZM27.4167 17.2686C25.8124 16.8544 24.1762 17.8191 23.7619 19.4233C23.3477 21.0276 24.3124 22.6639 25.9167 23.0781L27.4167 17.2686ZM33.6667 28V25.3333H27.6667V28H33.6667ZM33.6667 25.3311C33.6653 23.4847 33.0508 21.691 31.9195 20.2318L27.1775 23.9078C27.4942 24.3164 27.6663 24.8186 27.6667 25.3356L33.6667 25.3311ZM31.9195 20.2318C30.7883 18.7725 29.2045 17.7302 27.4167 17.2686L25.9167 23.0781C26.4173 23.2073 26.8607 23.4992 27.1775 23.9078L31.9195 20.2318Z" fill="#64748B" mask="url(#path-1-inside-1_1094_85381)"/>
<mask id="path-3-inside-2_1094_85381" fill="white">
<path d="M22.6666 28V25.3333C22.6666 23.9188 22.1047 22.5623 21.1045 21.5621C20.1044 20.5619 18.7478 20 17.3333 20H6.66665C5.25216 20 3.8956 20.5619 2.89541 21.5621C1.89522 22.5623 1.33331 23.9188 1.33331 25.3333V28"/>
</mask>
<path d="M19.6666 28C19.6666 29.6569 21.0098 31 22.6666 31C24.3235 31 25.6666 29.6569 25.6666 28H19.6666ZM17.3333 20V17V20ZM6.66665 20L6.66665 17L6.66665 20ZM1.33331 25.3333H-1.66669H1.33331ZM-1.66669 28C-1.66669 29.6569 -0.323541 31 1.33331 31C2.99017 31 4.33331 29.6569 4.33331 28H-1.66669ZM25.6666 28V25.3333H19.6666V28H25.6666ZM25.6666 25.3333C25.6666 23.1232 24.7887 21.0036 23.2259 19.4408L18.9832 23.6834C19.4208 24.121 19.6666 24.7145 19.6666 25.3333H25.6666ZM23.2259 19.4408C21.6631 17.878 19.5435 17 17.3333 17L17.3333 23C17.9521 23 18.5456 23.2458 18.9832 23.6834L23.2259 19.4408ZM17.3333 17H6.66665V23H17.3333V17ZM6.66665 17C4.45651 17 2.33689 17.878 0.77409 19.4408L5.01673 23.6834C5.45432 23.2458 6.04781 23 6.66665 23L6.66665 17ZM0.77409 19.4408C-0.788713 21.0036 -1.66669 23.1232 -1.66669 25.3333L4.33331 25.3333C4.33331 24.7145 4.57915 24.121 5.01673 23.6834L0.77409 19.4408ZM-1.66669 25.3333V28H4.33331V25.3333H-1.66669Z" fill="#64748B" mask="url(#path-3-inside-2_1094_85381)"/>
<path d="M21.3333 4.17334C22.4805 4.46707 23.4974 5.13427 24.2235 6.06975C24.9496 7.00523 25.3438 8.15578 25.3438 9.34001C25.3438 10.5242 24.9496 11.6748 24.2235 12.6103C23.4974 13.5457 22.4805 14.2129 21.3333 14.5067" stroke="#64748B" stroke-width="3" stroke-linecap="round" stroke-linejoin="round"/>
<path d="M12 14.6667C14.9455 14.6667 17.3334 12.2789 17.3334 9.33333C17.3334 6.38781 14.9455 4 12 4C9.0545 4 6.66669 6.38781 6.66669 9.33333C6.66669 12.2789 9.0545 14.6667 12 14.6667Z" stroke="#64748B" stroke-width="3" stroke-linecap="round" stroke-linejoin="round"/>
</svg>
