<svg width="32" height="32" viewBox="0 0 32 32" fill="none" xmlns="http://www.w3.org/2000/svg">
<path d="M23.5 5.33341V5.83341H24H25.3333C25.908 5.83341 26.4591 6.06169 26.8654 6.46802C27.2717 6.87435 27.5 7.42545 27.5 8.00008V26.6667C27.5 27.2414 27.2717 27.7925 26.8654 28.1988C26.4591 28.6051 25.908 28.8334 25.3333 28.8334H6.66667C6.09203 28.8334 5.54093 28.6051 5.1346 28.1988C4.72827 27.7925 4.5 27.2414 4.5 26.6667V8.00008C4.5 7.42545 4.72827 6.87435 5.1346 6.46802C5.54093 6.06169 6.09203 5.83341 6.66667 5.83341H8H8.5V5.33341V3.16675H10.1667V5.33341V5.83341H10.6667H21.3333H21.8333V5.33341V3.16675H23.5V5.33341ZM25.3333 27.1667H25.8333V26.6667V13.3334V12.8334H25.3333H6.66667H6.16667V13.3334V26.6667V27.1667H6.66667H25.3333ZM6.16667 10.6667V11.1667H6.66667H25.3333H25.8333V10.6667V8.00008V7.50008H25.3333H6.66667H6.16667V8.00008V10.6667ZM9.83333 16.5001H22.1667V18.1667H9.83333V16.5001ZM9.83333 21.8334H18.1667V23.5001H9.83333V21.8334Z" fill="#64748B" stroke="#64748B"/>
</svg>
