<svg width="32" height="32" viewBox="0 0 32 32" fill="none" xmlns="http://www.w3.org/2000/svg">
<path d="M19 16C19 17.6569 17.6569 19 16 19C14.3431 19 13 17.6569 13 16C13 14.3431 14.3431 13 16 13C17.6569 13 19 14.3431 19 16Z" stroke="#64748B" stroke-width="2" stroke-linecap="round" stroke-linejoin="round"/>
<path d="M26.3866 26.2799C26.6346 26.0323 26.8313 25.7382 26.9655 25.4144C27.0997 25.0907 27.1687 24.7437 27.1687 24.3933C27.1687 24.0428 27.0997 23.6958 26.9655 23.3721C26.8313 23.0483 26.6346 22.7542 26.3866 22.5066V26.2799ZM26.3866 26.2799C26.139 26.5279 25.8449 26.7245 25.5212 26.8587C25.1974 26.9929 24.8504 27.062 24.5 27.062C24.1495 27.062 23.8025 26.9929 23.4788 26.8587C23.1551 26.7245 22.861 26.5279 22.6133 26.2799H26.3866ZM25.5918 23.1258L25.5917 23.1259L25.5995 23.1337L25.6796 23.2137L25.6799 23.2141C25.8349 23.3689 25.9578 23.5527 26.0417 23.755C26.1256 23.9573 26.1687 24.1742 26.1687 24.3933C26.1687 24.6123 26.1256 24.8292 26.0417 25.0315C25.9578 25.2338 25.8349 25.4176 25.6799 25.5724L25.6791 25.5732C25.5244 25.7282 25.3405 25.8511 25.1382 25.935C24.9359 26.0188 24.719 26.062 24.5 26.062C24.281 26.062 24.0641 26.0188 23.8617 25.935C23.6594 25.8511 23.4756 25.7282 23.3208 25.5732L23.3204 25.5728L23.2404 25.4928L23.2405 25.4928L23.2326 25.4851C22.7755 25.038 22.195 24.738 21.5658 24.624C20.9385 24.5102 20.2915 24.5865 19.7079 24.8429C19.1363 25.0889 18.6489 25.4963 18.3053 26.0151C17.9607 26.5355 17.7758 27.1452 17.7733 27.7693V27.7733V27.9999C17.7733 28.4419 17.5977 28.8659 17.2852 29.1784C16.9726 29.491 16.5487 29.6666 16.1066 29.6666C15.6646 29.6666 15.2407 29.491 14.9281 29.1784C14.6156 28.8659 14.44 28.4419 14.44 27.9999V27.8799L14.4397 27.8565C14.4247 27.2146 14.2169 26.592 13.8434 26.0698C13.4759 25.5561 12.9649 25.1628 12.3748 24.9391C11.7974 24.6911 11.1595 24.6184 10.5408 24.7306C9.91166 24.8447 9.33112 25.1446 8.87405 25.5917L8.874 25.5917L8.8662 25.5995L8.7862 25.6795L8.78581 25.6799C8.63103 25.8348 8.44721 25.9578 8.24488 26.0416C8.04255 26.1255 7.82567 26.1687 7.60665 26.1687C7.38762 26.1687 7.17074 26.1255 6.96841 26.0416C6.76608 25.9578 6.58227 25.8348 6.42748 25.6799L6.42669 25.6791C6.27173 25.5243 6.1488 25.3405 6.06493 25.1382C5.98105 24.9358 5.93788 24.7189 5.93788 24.4999C5.93788 24.2809 5.98105 24.064 6.06493 23.8617C6.1488 23.6594 6.27173 23.4755 6.42669 23.3207L6.42708 23.3204L6.50708 23.2404L6.50713 23.2404L6.51484 23.2325C6.96194 22.7754 7.26187 22.1949 7.37594 21.5658C7.4897 20.9384 7.41343 20.2914 7.15699 19.7077C6.91093 19.1362 6.50357 18.6488 5.98475 18.3052C5.46443 17.9607 4.85471 17.7757 4.23063 17.7733H4.22665H3.99998C3.55795 17.7733 3.13403 17.5977 2.82147 17.2851C2.50891 16.9725 2.33331 16.5486 2.33331 16.1066C2.33331 15.6646 2.50891 15.2406 2.82147 14.9281C3.13403 14.6155 3.55795 14.4399 3.99998 14.4399H4.11998L4.14336 14.4396C4.78529 14.4246 5.40786 14.2168 5.93013 13.8433C6.44382 13.4759 6.83711 12.9648 7.06079 12.3747C7.30882 11.7973 7.38147 11.1595 7.26928 10.5407C7.1552 9.91159 6.85528 9.33106 6.40818 8.87399L6.40822 8.87394L6.40042 8.86614L6.32042 8.78614L6.32003 8.78575C6.16507 8.63096 6.04213 8.44715 5.95826 8.24482C5.87439 8.04249 5.83121 7.82561 5.83121 7.60659C5.83121 7.38756 5.87439 7.17068 5.95826 6.96835C6.04213 6.76602 6.16507 6.58221 6.32003 6.42742L6.32081 6.42663C6.4756 6.27167 6.65942 6.14874 6.86175 6.06487C7.06408 5.98099 7.28095 5.93782 7.49998 5.93782C7.71901 5.93782 7.93588 5.98099 8.13821 6.06487C8.34054 6.14874 8.52436 6.27167 8.67915 6.42663L8.67954 6.42703L8.75954 6.50703L8.7595 6.50707L8.76738 6.51478C9.22446 6.96188 9.80499 7.26181 10.4341 7.37588C10.9923 7.47708 11.566 7.42789 12.0968 7.23522C12.199 7.22528 12.2992 7.19965 12.3939 7.15906C12.9675 6.91321 13.4567 6.50501 13.8013 5.98469C14.1459 5.46437 14.3308 4.85464 14.3333 4.23057L14.3333 4.23057V4.22659V3.99992C14.3333 3.55789 14.5089 3.13397 14.8215 2.82141C15.134 2.50885 15.558 2.33325 16 2.33325C16.442 2.33325 16.8659 2.50885 17.1785 2.82141C17.4911 3.13397 17.6666 3.55789 17.6666 3.99992L17.6666 4.11992L17.6667 4.12391C17.6691 4.74798 17.8541 5.3577 18.1986 5.87802C18.5422 6.39685 19.0296 6.8042 19.6011 7.05027C20.1848 7.3067 20.8318 7.38297 21.4592 7.26921C22.0883 7.15514 22.6688 6.85522 23.1259 6.40811L23.126 6.40816L23.1338 6.40036L23.2138 6.32036L23.2141 6.31996C23.3689 6.16501 23.5527 6.04207 23.7551 5.9582C23.9574 5.87432 24.1743 5.83115 24.3933 5.83115C24.6123 5.83115 24.8292 5.87432 25.0315 5.9582C25.2339 6.04207 25.4177 6.165 25.5725 6.31997L25.5733 6.32075C25.7282 6.47554 25.8512 6.65936 25.935 6.86168C26.0189 7.06402 26.0621 7.28089 26.0621 7.49992C26.0621 7.71894 26.0189 7.93582 25.935 8.13815C25.8512 8.34048 25.7282 8.5243 25.5733 8.67908L25.5729 8.67948L25.4929 8.75948L25.4928 8.75944L25.4851 8.76732C25.038 9.2244 24.7381 9.80493 24.624 10.4341C24.5228 10.9922 24.572 11.5659 24.7647 12.0967C24.7746 12.1989 24.8002 12.2991 24.8408 12.3938C25.0867 12.9675 25.4949 13.4567 26.0152 13.8013C26.5355 14.1458 27.1453 14.3308 27.7693 14.3333H27.7733H28C28.442 14.3333 28.8659 14.5088 29.1785 14.8214C29.4911 15.134 29.6666 15.5579 29.6666 15.9999C29.6666 16.4419 29.4911 16.8659 29.1785 17.1784C28.8659 17.491 28.442 17.6666 28 17.6666L27.88 17.6666L27.876 17.6666C27.2519 17.6691 26.6422 17.854 26.1219 18.1986C25.603 18.5422 25.1956 19.0296 24.9496 19.6011C24.6932 20.1848 24.6169 20.8318 24.7307 21.4591C24.8448 22.0882 25.1447 22.6688 25.5918 23.1258Z" stroke="#64748B" stroke-width="2" stroke-linecap="round" stroke-linejoin="round"/>
</svg>
